<?xml version="1.0" encoding="UTF-8" standalone="no"?>
<!DOCTYPE svg PUBLIC "-//W3C//DTD SVG 1.1//EN" "http://www.w3.org/Graphics/SVG/1.1/DTD/svg11.dtd">
<svg xmlns="http://www.w3.org/2000/svg" version="1.1" viewBox="0.00 0.00 1908.00 1097.00">
<g stroke-width="2.00" fill="none" stroke-linecap="butt">
<path stroke="#77925e" vector-effect="non-scaling-stroke" d="
  M 969.43 805.26
  A 0.61 0.61 0.0 0 0 968.82 804.65
  L 941.14 804.65
  A 0.61 0.61 0.0 0 0 940.53 805.26
  L 940.53 830.22
  A 0.61 0.61 0.0 0 0 941.14 830.83
  L 968.82 830.83
  A 0.61 0.61 0.0 0 0 969.43 830.22
  L 969.43 805.26"
/>
<path stroke="#77925e" vector-effect="non-scaling-stroke" d="
  M 1225.05 805.25
  A 0.63 0.63 0.0 0 0 1224.42 804.62
  L 1201.48 804.62
  A 0.63 0.63 0.0 0 0 1200.85 805.25
  L 1200.85 986.45
  A 0.63 0.63 0.0 0 0 1201.48 987.08
  L 1224.42 987.08
  A 0.63 0.63 0.0 0 0 1225.05 986.45
  L 1225.05 805.25"
/>
<path stroke="#77925e" vector-effect="non-scaling-stroke" d="
  M 1281.18 805.12
  A 0.50 0.50 0.0 0 0 1280.68 804.62
  L 1252.94 804.62
  A 0.50 0.50 0.0 0 0 1252.44 805.12
  L 1252.44 830.42
  A 0.50 0.50 0.0 0 0 1252.94 830.92
  L 1280.68 830.92
  A 0.50 0.50 0.0 0 0 1281.18 830.42
  L 1281.18 805.12"
/>
<path stroke="#77925e" vector-effect="non-scaling-stroke" d="
  M 282.21 922.83
  Q 299.51 922.73 316.80 922.84
  C 348.43 923.06 383.00 914.24 387.77 876.70
  Q 389.46 863.36 388.00 853.26
  C 382.37 814.41 349.45 806.22 315.75 806.11
  Q 273.55 805.98 232.09 806.02
  Q 230.87 806.02 230.87 807.24
  L 230.87 987.18
  A 0.81 0.81 0.0 0 0 231.68 987.99
  L 280.76 988.06
  A 0.83 0.83 0.0 0 0 281.59 987.24
  L 281.68 923.36
  A 0.53 0.53 0.0 0 1 282.21 922.83"
/>
<path stroke="#77925e" vector-effect="non-scaling-stroke" d="
  M 702.51 841.53
  Q 699.34 841.30 699.52 844.74
  Q 699.75 849.15 699.45 860.99
  Q 699.44 861.40 699.03 861.40
  L 675.52 861.44
  Q 674.97 861.44 674.97 861.98
  L 674.98 891.31
  Q 674.98 891.88 675.55 891.88
  L 699.01 891.80
  Q 699.54 891.79 699.54 892.32
  C 699.57 912.42 699.89 932.61 699.32 952.69
  Q 699.06 961.72 701.11 969.50
  C 705.55 986.37 720.30 990.02 735.75 991.15
  Q 754.03 992.48 773.69 989.55
  A 1.80 1.80 0.0 0 0 775.22 987.77
  L 775.23 961.02
  Q 775.23 960.60 774.81 960.64
  Q 765.99 961.40 757.11 961.04
  C 752.21 960.84 749.54 958.90 748.51 954.21
  Q 747.63 950.24 747.63 948.25
  Q 747.59 920.20 747.67 892.24
  A 0.38 0.38 0.0 0 1 748.05 891.86
  L 774.49 891.85
  Q 775.33 891.85 775.33 891.01
  L 775.31 862.01
  Q 775.31 861.47 774.76 861.47
  L 748.87 861.49
  Q 747.74 861.49 747.74 860.37
  L 747.61 824.94
  A 0.56 0.55 79.5 0 0 746.86 824.42
  Q 725.04 832.71 703.15 840.92
  Q 702.96 840.99 702.86 841.29
  A 0.34 0.34 0.0 0 1 702.51 841.53"
/>
<path stroke="#77925e" vector-effect="non-scaling-stroke" d="
  M 1043.56 972.08
  Q 1034.20 971.38 1031.03 965.00
  Q 1029.47 961.85 1029.47 952.30
  Q 1029.47 915.03 1029.49 877.68
  Q 1029.49 877.14 1030.03 877.15
  L 1058.21 877.55
  A 0.51 0.51 0.0 0 0 1058.73 877.04
  L 1058.73 859.70
  Q 1058.73 859.17 1058.20 859.19
  L 1030.01 860.26
  Q 1029.49 860.28 1029.49 859.76
  L 1029.49 826.29
  A 0.55 0.54 81.1 0 0 1028.78 825.77
  L 1005.94 832.96
  Q 1005.49 833.10 1005.49 833.57
  L 1005.38 859.67
  A 0.53 0.53 0.0 0 1 1004.83 860.20
  L 984.29 859.33
  Q 983.63 859.30 983.63 859.96
  L 983.57 876.93
  Q 983.57 877.54 984.18 877.53
  L 1004.73 877.15
  Q 1005.32 877.14 1005.32 877.73
  Q 1005.46 917.44 1005.41 957.15
  Q 1005.39 968.91 1006.66 973.21
  C 1010.68 986.94 1022.63 990.17 1036.48 990.62
  Q 1046.87 990.96 1057.50 989.20
  A 0.71 0.71 0.0 0 0 1058.09 988.50
  L 1058.03 971.26
  A 0.50 0.50 0.0 0 0 1057.46 970.77
  L 1047.60 972.12"
/>
<path stroke="#77925e" vector-effect="non-scaling-stroke" d="
  M 1120.22 856.58
  C 1106.93 856.83 1092.66 861.51 1084.52 872.05
  Q 1077.58 881.03 1077.22 893.47
  Q 1077.20 894.00 1077.74 894.00
  L 1102.24 894.05
  Q 1102.72 894.05 1102.76 893.57
  Q 1103.74 880.68 1115.01 876.19
  C 1123.83 872.67 1138.70 872.81 1146.42 879.59
  C 1152.86 885.26 1153.34 900.17 1152.97 908.08
  A 0.55 0.55 0.0 0 1 1152.40 908.61
  C 1134.05 908.09 1114.42 907.76 1097.55 914.13
  Q 1069.62 924.68 1069.59 955.23
  C 1069.56 983.42 1100.56 994.17 1123.98 989.96
  Q 1143.92 986.37 1153.09 968.63
  A 0.28 0.28 0.0 0 1 1153.62 968.73
  L 1154.89 985.39
  A 1.98 1.97 -2.3 0 0 1156.87 987.21
  L 1177.56 987.02
  A 0.57 0.57 0.0 0 0 1178.13 986.42
  C 1176.50 957.28 1177.32 927.94 1177.08 898.77
  C 1176.85 869.80 1158.06 857.45 1131.33 856.58"
/>
<path stroke="#77925e" vector-effect="non-scaling-stroke" d="
  M 1352.16 856.45
  C 1328.94 857.09 1309.34 867.96 1308.09 893.61
  Q 1308.07 894.02 1308.48 894.02
  L 1333.03 894.05
  Q 1333.49 894.05 1333.53 893.60
  C 1335.07 875.00 1354.21 871.40 1369.24 875.49
  C 1377.85 877.84 1381.11 882.74 1382.73 891.56
  Q 1384.20 899.63 1383.64 907.79
  A 0.86 0.86 0.0 0 1 1382.77 908.60
  C 1361.92 908.27 1337.37 907.08 1318.90 918.85
  Q 1299.95 930.90 1300.54 956.24
  C 1300.92 972.79 1312.67 984.01 1327.48 988.33
  C 1348.40 994.43 1372.90 990.13 1383.53 969.27
  A 0.53 0.53 0.0 0 1 1384.53 969.46
  Q 1385.09 975.18 1385.39 981.12
  Q 1385.54 984.12 1386.38 986.48
  A 1.18 1.18 0.0 0 0 1387.49 987.26
  L 1408.23 987.07
  A 1.07 1.07 0.0 0 0 1409.28 985.84
  Q 1408.41 979.68 1408.38 973.75
  Q 1408.19 939.12 1408.11 904.50
  C 1408.09 896.02 1407.62 888.81 1405.25 881.75
  C 1401.10 869.41 1390.06 861.68 1377.74 858.66
  Q 1369.69 856.69 1361.07 856.47"
/>
<path stroke="#77925e" vector-effect="non-scaling-stroke" d="
  M 1492.16 856.49
  C 1478.02 857.66 1464.06 865.11 1457.25 877.95
  A 0.43 0.43 0.0 0 1 1456.44 877.75
  L 1456.44 860.65
  Q 1456.44 860.11 1455.90 860.11
  L 1433.33 860.07
  Q 1432.74 860.07 1432.74 860.67
  L 1432.73 986.65
  A 0.42 0.42 0.0 0 0 1433.15 987.07
  L 1456.03 987.03
  A 0.86 0.86 0.0 0 0 1456.89 986.17
  Q 1457.00 953.11 1456.93 920.00
  C 1456.89 904.39 1458.07 889.24 1471.66 880.44
  C 1482.18 873.64 1498.34 872.78 1508.54 880.08
  C 1518.14 886.95 1519.02 898.88 1519.03 910.00
  Q 1519.04 948.00 1519.00 986.31
  A 0.75 0.75 0.0 0 0 1519.74 987.06
  L 1542.52 987.08
  A 0.96 0.95 -0.0 0 0 1543.48 986.13
  Q 1543.49 942.60 1543.35 899.25
  C 1543.30 882.88 1536.50 868.92 1521.23 861.87
  Q 1510.92 857.11 1499.55 856.58"
/>
<path stroke="#77925e" vector-effect="non-scaling-stroke" d="
  M 1676.67 907.75
  C 1674.05 877.89 1655.96 858.01 1625.08 856.57"
/>
<path stroke="#77925e" vector-effect="non-scaling-stroke" d="
  M 1617.31 856.44
  L 1606.49 857.81
  Q 1606.02 857.87 1605.63 858.15
  Q 1604.87 858.70 1603.90 858.74
  Q 1602.53 858.80 1602.11 858.93
  C 1570.72 869.02 1561.60 899.46 1562.22 929.24
  C 1562.93 963.60 1580.30 989.89 1617.25 990.70
  C 1646.35 991.34 1670.78 978.95 1675.62 948.06
  A 0.65 0.65 0.0 0 0 1674.98 947.31
  L 1650.78 947.34
  Q 1650.25 947.34 1650.13 947.86
  Q 1648.61 954.65 1647.72 956.99
  C 1643.98 966.75 1636.60 971.39 1626.48 972.72
  C 1608.69 975.06 1596.06 968.23 1590.17 951.11
  Q 1586.53 940.55 1587.75 928.81
  Q 1587.81 928.26 1588.35 928.26
  L 1599.71 928.07"
/>
<path stroke="#77925e" vector-effect="non-scaling-stroke" d="
  M 492.59 987.33
  Q 497.73 986.21 503.24 983.47
  Q 521.01 974.62 529.92 958.12
  C 539.83 939.77 540.00 912.84 531.40 894.00
  C 516.54 861.45 477.90 854.41 446.28 859.22
  Q 431.24 861.50 419.18 868.67
  Q 399.30 880.50 392.96 903.39
  Q 388.48 919.52 390.83 936.13
  Q 394.86 964.61 417.30 979.31
  C 438.38 993.12 468.76 994.44 492.12 987.79
  Q 492.19 987.77 492.23 987.71
  Q 492.31 987.59 492.39 987.47
  Q 492.46 987.36 492.59 987.33"
/>
<path stroke="#77925e" vector-effect="non-scaling-stroke" d="
  M 655.76 920.93
  Q 652.76 918.77 650.49 917.75
  Q 641.81 913.84 630.89 911.28
  Q 619.19 908.53 607.48 905.81
  C 601.42 904.41 591.63 902.36 593.83 893.63
  Q 595.94 885.26 605.98 885.58
  Q 620.64 886.05 620.85 900.05
  Q 620.86 900.51 621.32 900.51
  L 665.76 900.49
  Q 666.32 900.49 666.28 899.93
  C 664.60 874.31 648.75 862.59 625.45 859.14
  C 601.25 855.56 557.84 857.23 549.27 887.39
  C 544.80 903.13 550.70 918.30 565.42 926.15
  C 577.12 932.39 588.57 934.74 603.61 938.55
  C 612.48 940.80 627.54 945.77 621.45 957.28
  Q 619.80 960.40 616.34 961.95
  C 604.42 967.28 591.92 960.67 591.90 947.12
  Q 591.90 946.69 591.47 946.69
  L 547.45 946.68
  Q 546.89 946.68 546.87 947.24
  C 545.82 975.05 564.01 987.62 588.74 990.55
  C 609.49 993.01 636.54 992.55 653.98 980.05
  C 667.53 970.35 670.68 952.70 666.83 937.18
  Q 664.33 927.11 655.76 920.93"
/>
<path stroke="#77925e" vector-effect="non-scaling-stroke" d="
  M 917.82 898.07
  Q 917.23 896.04 916.94 895.24
  Q 905.60 864.26 872.80 859.12
  Q 852.35 855.91 834.76 859.79
  C 807.64 865.77 788.49 886.38 786.56 914.51
  Q 785.41 931.21 788.99 947.56
  C 795.08 975.35 813.72 987.30 840.10 990.59
  Q 855.59 992.52 871.24 990.72
  Q 884.35 989.21 895.85 982.89
  C 909.83 975.21 918.86 963.27 921.41 947.76
  Q 921.62 946.45 920.29 946.45
  L 877.39 946.38
  A 0.93 0.93 0.0 0 0 876.47 947.18
  C 874.75 959.85 862.96 965.81 851.02 964.47
  C 835.10 962.69 830.81 948.60 831.92 934.83
  A 0.49 0.49 0.0 0 1 832.41 934.38
  L 921.49 934.51
  Q 922.03 934.51 922.05 933.97
  Q 922.93 915.55 917.82 898.07"
/>
<path stroke="#77925e" vector-effect="non-scaling-stroke" d="
  M 967.21 860.78
  A 0.66 0.66 0.0 0 0 966.55 860.12
  L 943.43 860.12
  A 0.66 0.66 0.0 0 0 942.77 860.78
  L 942.77 986.38
  A 0.66 0.66 0.0 0 0 943.43 987.04
  L 966.55 987.04
  A 0.66 0.66 0.0 0 0 967.21 986.38
  L 967.21 860.78"
/>
<path stroke="#77925e" vector-effect="non-scaling-stroke" d="
  M 1278.90 860.43
  A 0.27 0.27 0.0 0 0 1278.63 860.16
  L 1255.05 860.16
  A 0.27 0.27 0.0 0 0 1254.78 860.43
  L 1254.78 986.77
  A 0.27 0.27 0.0 0 0 1255.05 987.04
  L 1278.63 987.04
  A 0.27 0.27 0.0 0 0 1278.90 986.77
  L 1278.90 860.43"
/>
<path stroke="#77925e" vector-effect="non-scaling-stroke" d="
  M 281.60 841.93
  L 281.68 887.05
  A 0.39 0.39 0.0 0 0 282.07 887.44
  L 310.17 887.39
  A 25.43 21.28 -0.1 0 0 335.56 866.06
  L 335.56 862.72
  A 25.43 21.28 -0.1 0 0 310.09 841.49
  L 281.99 841.54
  A 0.39 0.39 0.0 0 0 281.60 841.93"
/>
<path stroke="#77925e" vector-effect="non-scaling-stroke" d="
  M 1326.04 950.05
  C 1325.55 962.28 1333.77 971.38 1345.93 972.77
  C 1355.78 973.90 1365.74 972.21 1372.81 965.20
  C 1382.02 956.08 1384.42 939.05 1383.72 926.08
  Q 1383.69 925.46 1383.07 925.44
  Q 1369.90 924.83 1356.91 925.76
  C 1347.44 926.43 1335.36 929.62 1329.73 937.89
  Q 1326.33 942.87 1326.04 950.05"
/>
<path stroke="#77925e" vector-effect="non-scaling-stroke" d="
  M 1588.49 911.48
  L 1651.47 911.48
  A 0.26 0.26 0.0 0 0 1651.73 911.22
  L 1651.73 906.89
  A 32.99 30.44 90.0 0 0 1621.29 873.90
  L 1618.67 873.90
  A 32.99 30.44 90.0 0 0 1588.23 906.89
  L 1588.23 911.22
  A 0.26 0.26 0.0 0 0 1588.49 911.48"
/>
<path stroke="#77925e" vector-effect="non-scaling-stroke" d="
  M 1130.26 925.46
  C 1118.77 925.68 1105.31 928.60 1098.19 938.87
  C 1093.50 945.64 1094.34 956.83 1098.85 963.36
  Q 1104.84 972.07 1117.02 972.90
  Q 1141.87 974.58 1149.69 952.19
  Q 1153.78 940.46 1152.76 925.84
  Q 1152.73 925.36 1152.25 925.36
  Q 1141.22 925.25 1130.26 925.46"
/>
<path stroke="#77925e" vector-effect="non-scaling-stroke" d="
  M 452.23 888.77
  C 446.64 892.65 443.07 899.42 441.62 905.60
  C 438.17 920.33 436.93 952.39 453.47 961.25
  C 461.08 965.33 471.27 964.55 477.86 958.66
  C 485.01 952.27 487.28 941.11 487.84 931.49
  C 488.90 913.53 486.68 882.90 461.04 885.67
  Q 455.90 886.23 452.23 888.77"
/>
<path stroke="#77925e" vector-effect="non-scaling-stroke" d="
  M 876.72 908.17
  C 876.53 894.48 868.75 880.51 853.50 881.83
  C 837.80 883.18 834.45 894.23 832.66 907.58
  A 0.63 0.62 4.0 0 0 833.28 908.29
  L 872.46 908.30"
/>
</g>
<path fill="#2a6b9b" d="
  M 12.38 623.72
  L 62.57 443.94
  Q 62.88 442.85 64.01 442.85
  Q 220.40 442.85 377.46 442.85
  C 379.30 442.85 380.29 442.22 382.05 441.90
  A 0.95 0.94 2.5 0 0 382.78 441.24
  C 383.50 438.82 382.88 436.95 381.04 435.09
  Q 372.90 426.85 364.67 418.68
  C 364.20 418.21 363.73 418.12 363.18 417.77
  Q 362.75 417.49 362.69 416.99
  Q 362.62 416.37 362.01 416.31
  Q 361.52 416.27 361.17 415.92
  Q 354.58 409.34 347.81 402.96
  C 343.18 398.59 338.67 394.21 334.14 389.73
  C 333.50 389.09 332.67 389.03 332.07 388.43
  Q 323.33 379.61 320.82 377.17
  Q 320.50 376.86 319.97 376.72
  Q 319.50 376.60 319.14 376.25
  Q 312.41 369.54 305.67 362.85
  C 304.87 362.06 304.04 361.92 303.29 361.18
  Q 296.99 354.88 290.71 348.57
  Q 290.45 348.31 289.82 348.12
  Q 289.35 347.98 289.00 347.64
  Q 282.38 341.05 275.80 334.44
  Q 275.57 334.20 274.95 334.03
  A 1.87 1.85 -14.7 0 1 274.12 333.55
  Q 266.49 325.88 258.82 318.26
  C 258.41 317.85 258.19 317.80 257.64 317.70
  Q 257.23 317.62 257.22 317.21
  Q 257.21 316.29 256.27 316.13
  A 1.42 1.35 -16.0 0 1 255.54 315.75
  Q 246.76 306.94 237.97 298.17
  C 237.33 297.52 236.72 297.73 236.15 297.17
  Q 225.26 286.17 214.27 275.28
  C 207.84 268.91 196.35 258.82 188.39 249.35
  Q 169.99 227.44 161.60 200.01
  Q 155.28 179.32 154.53 157.77
  Q 154.52 157.66 153.87 149.80
  Q 153.61 146.68 153.93 143.57
  Q 154.48 138.41 154.53 137.39
  Q 156.33 104.37 174.87 77.90
  C 186.92 60.71 204.10 46.82 222.74 37.26
  Q 234.10 31.44 246.04 27.01
  Q 254.65 23.81 265.16 21.12
  Q 301.90 11.72 336.25 11.71
  Q 553.01 11.68 769.68 11.71
  A 0.27 0.26 7.4 0 1 769.94 12.04
  L 716.71 202.77
  A 1.03 1.03 0.0 0 1 715.72 203.52
  L 428.51 203.52
  Q 428.08 203.52 427.70 203.74
  C 424.02 205.87 425.98 208.95 428.24 211.12
  A 1.64 1.56 14.6 0 1 428.66 211.80
  Q 429.09 213.22 430.51 213.67
  Q 431.04 213.84 431.42 214.24
  C 438.95 222.25 447.19 228.74 453.86 236.14
  C 454.45 236.79 455.46 236.85 456.18 237.56
  Q 462.22 243.53 468.20 249.56
  Q 468.47 249.83 469.01 249.98
  Q 469.50 250.11 469.86 250.46
  Q 477.25 257.79 484.57 265.17
  C 485.08 265.69 486.00 265.84 486.64 266.48
  Q 496.14 275.92 505.59 285.41
  Q 505.90 285.73 506.64 285.96
  Q 507.08 286.10 507.40 286.43
  Q 543.39 322.40 579.36 358.39
  Q 579.61 358.64 579.70 359.08
  Q 579.79 359.57 580.14 359.92
  Q 584.80 364.66 589.52 369.31
  C 590.22 370.00 590.40 370.64 591.12 371.39
  Q 606.31 387.13 618.11 405.43
  Q 624.02 414.59 627.67 422.97
  Q 635.60 441.20 637.86 461.02
  Q 638.91 470.20 639.36 480.95
  C 639.82 492.01 639.09 502.73 636.52 513.00
  Q 635.49 517.12 634.32 520.47
  Q 624.40 549.01 603.59 572.53
  Q 563.48 617.85 504.61 623.91
  Q 497.43 624.65 484.64 624.65
  Q 248.69 624.60 13.08 624.63
  A 0.72 0.71 7.9 0 1 12.38 623.72
  Z"
/>
<path fill="#2a6b9b" d="
  M 638.44 557.71
  C 638.80 556.97 638.47 556.70 638.66 556.01
  Q 674.69 426.87 710.72 297.72
  Q 710.75 297.65 710.85 296.76
  Q 710.92 296.12 711.51 295.74
  A 0.63 0.63 0.0 0 0 711.75 294.96
  Q 711.24 293.74 712.07 292.78
  Q 712.40 292.39 712.49 291.89
  Q 713.22 288.01 714.64 284.42
  Q 714.81 283.98 714.74 283.51
  L 714.67 282.99
  Q 714.59 282.44 715.03 282.11
  Q 715.72 281.60 715.60 280.82
  Q 715.51 280.29 715.66 279.78
  L 717.99 271.80
  Q 718.12 271.34 718.41 270.96
  Q 718.97 270.23 718.56 269.24
  Q 718.35 268.72 718.77 268.35
  Q 719.34 267.85 719.42 267.16
  Q 719.56 265.93 719.58 265.86
  Q 732.85 218.64 745.97 171.37
  A 0.85 0.00 -54.4 0 0 746.46 170.69
  Q 746.59 170.51 746.65 170.29
  Q 746.69 170.16 746.65 170.03
  C 746.20 168.55 747.12 167.73 747.40 166.69
  Q 749.07 160.48 750.38 155.30
  A 4.21 3.15 -75.7 0 1 750.55 154.73
  Q 751.64 151.69 753.40 145.33
  Q 770.77 82.76 788.16 20.19
  Q 789.82 14.20 790.36 12.15
  Q 790.48 11.70 790.95 11.70
  L 1033.01 11.70
  Q 1033.44 11.70 1033.82 11.93
  Q 1034.24 12.19 1034.75 12.20
  Q 1082.37 13.68 1128.87 26.89
  Q 1157.95 35.15 1184.14 48.09
  Q 1212.31 62.01 1236.53 81.98
  C 1237.80 83.02 1239.63 85.06 1241.32 86.35
  Q 1242.74 87.44 1243.33 87.98
  Q 1291.93 132.26 1310.10 195.65
  Q 1316.94 219.52 1319.58 245.71
  Q 1320.08 250.66 1319.87 254.26
  A 1.75 1.74 32.4 0 0 1320.08 255.20
  Q 1320.69 256.38 1320.69 257.00
  Q 1320.70 275.78 1320.68 285.77
  Q 1320.66 291.11 1320.30 296.44
  Q 1318.15 327.65 1310.42 358.03
  Q 1298.10 406.45 1275.16 450.82
  Q 1246.16 506.94 1200.51 551.74
  Q 1200.04 552.20 1199.58 552.34
  Q 1199.11 552.48 1198.76 552.82
  Q 1152.97 596.81 1093.75 614.96
  Q 1067.81 622.91 1037.64 624.10
  Q 1037.21 624.12 1036.86 624.37
  Q 1036.75 624.45 1036.64 624.53
  Q 1036.49 624.63 1036.32 624.63
  L 621.00 624.63
  Q 619.47 624.63 619.88 623.15
  Q 628.88 591.00 636.99 561.99
  Q 637.87 558.84 638.44 557.71
  Z
  M 1060.63 211.11
  Q 1046.40 205.99 1031.45 204.36
  Q 1025.16 203.67 1011.48 203.60
  Q 974.56 203.42 937.56 203.56
  Q 936.98 203.56 936.82 204.12
  Q 935.27 209.62 930.75 225.76
  Q 918.42 269.82 906.13 313.88
  Q 889.24 374.43 872.35 434.97
  C 872.06 436.00 871.31 436.69 871.63 438.13
  Q 871.70 438.47 871.46 438.70
  L 871.06 439.07
  A 0.97 0.96 60.0 0 0 870.80 440.06
  Q 871.21 441.39 870.36 442.32
  Q 869.86 442.85 870.59 442.85
  Q 927.39 442.84 984.20 442.85
  C 986.01 442.85 987.41 442.08 989.32 442.01
  Q 992.68 441.88 993.16 441.80
  Q 1004.65 439.97 1013.82 437.02
  Q 1039.45 428.76 1061.49 412.54
  Q 1069.78 406.45 1076.76 399.67
  Q 1103.84 373.41 1114.65 337.16
  C 1119.71 320.18 1122.07 300.03 1120.86 282.89
  Q 1119.25 259.93 1103.69 240.82
  Q 1096.84 232.42 1093.85 230.40
  Q 1091.95 229.11 1090.94 228.21
  Q 1089.25 226.67 1089.22 226.65
  Q 1076.13 216.68 1060.63 211.11
  Z"
/>
<path fill="#2a6b9b" d="
  M 1636.21 443.57
  L 1499.03 443.57
  Q 1498.37 443.57 1498.52 444.22
  L 1498.64 444.73
  Q 1498.77 445.31 1498.33 445.71
  Q 1497.42 446.57 1497.87 447.90
  Q 1498.01 448.33 1497.70 448.67
  L 1497.45 448.94
  Q 1497.32 449.08 1497.27 449.26
  L 1448.68 623.29
  Q 1448.31 624.63 1446.93 624.63
  L 1253.01 624.63
  A 0.80 0.80 0.0 0 1 1252.24 623.62
  Q 1307.35 426.31 1362.25 229.26
  Q 1369.51 203.21 1374.18 188.97
  Q 1380.90 168.42 1389.74 148.70
  Q 1403.74 117.47 1425.01 90.73
  C 1426.63 88.69 1429.38 86.22 1431.34 83.74
  Q 1432.94 81.72 1433.76 80.84
  Q 1458.84 54.02 1491.72 37.72
  C 1494.13 36.53 1498.59 34.85 1501.84 32.83
  Q 1502.10 32.67 1502.56 32.67
  Q 1503.06 32.67 1503.51 32.47
  Q 1514.00 27.86 1525.02 24.62
  Q 1528.03 23.73 1531.01 22.75
  Q 1534.45 21.62 1537.05 21.00
  Q 1564.33 14.51 1592.26 12.44
  Q 1600.27 11.84 1612.24 11.79
  Q 1654.75 11.62 1697.26 11.69
  Q 1710.04 11.72 1717.24 12.33
  Q 1736.33 13.95 1756.43 19.06
  Q 1768.09 22.02 1777.91 25.46
  Q 1787.25 28.72 1796.51 32.82
  Q 1828.09 46.80 1852.90 71.08
  Q 1854.14 72.29 1856.57 75.39
  C 1858.15 77.38 1860.22 79.21 1861.66 81.03
  Q 1890.51 117.57 1894.71 164.28
  C 1894.79 165.23 1894.66 167.31 1895.01 168.75
  Q 1895.32 170.02 1895.35 170.73
  C 1896.85 202.58 1892.02 233.52 1883.13 264.02
  Q 1881.19 270.66 1879.42 277.33
  C 1879.13 278.43 1878.23 279.51 1878.51 281.05
  Q 1878.62 281.62 1878.14 281.95
  Q 1877.53 282.37 1877.61 283.04
  Q 1877.65 283.46 1877.54 283.87
  L 1782.59 624.17
  Q 1782.46 624.63 1781.99 624.63
  L 1586.90 624.63
  A 0.60 0.59 -82.5 0 1 1586.33 623.88
  L 1591.91 603.53
  Q 1592.04 603.05 1592.42 602.73
  Q 1592.84 602.38 1592.67 601.81
  Q 1592.55 601.39 1592.67 600.97
  L 1636.51 443.98
  Q 1636.62 443.57 1636.21 443.57
  Z
  M 1540.49 295.62
  Q 1540.39 295.70 1540.30 295.81
  Q 1540.00 296.18 1539.84 296.77
  L 1537.80 304.11
  Q 1537.67 304.55 1538.13 304.55
  L 1674.96 304.56
  Q 1675.43 304.56 1675.56 304.11
  Q 1686.05 266.68 1696.42 229.22
  Q 1697.68 224.66 1697.50 221.13
  Q 1697.27 216.39 1695.95 213.01
  Q 1689.26 195.87 1672.03 188.15
  Q 1667.83 186.28 1665.37 185.40
  Q 1661.56 184.05 1658.25 184.02
  Q 1656.77 184.00 1656.01 183.56
  Q 1655.60 183.31 1655.11 183.31
  Q 1631.56 183.30 1608.00 183.31
  Q 1607.04 183.31 1605.58 183.80
  C 1603.63 184.46 1601.15 184.06 1599.41 184.49
  Q 1582.91 188.54 1571.86 201.53
  Q 1563.72 211.11 1561.04 220.76
  Q 1551.20 256.13 1541.27 291.50
  Q 1540.56 294.00 1540.62 295.33
  Q 1540.63 295.50 1540.49 295.62
  Z"
/>
<path fill="#eedc00" d="
  M 1895.18 1085.45
  A 0.31 0.31 0.0 0 1 1894.87 1085.76
  L 13.29 1085.76
  A 0.31 0.31 0.0 0 1 12.98 1085.45
  L 12.98 710.81
  A 0.31 0.31 0.0 0 1 13.29 710.50
  L 1894.87 710.50
  A 0.31 0.31 0.0 0 1 1895.18 710.81
  L 1895.18 1085.45
  Z
  M 969.43 805.26
  A 0.61 0.61 0.0 0 0 968.82 804.65
  L 941.14 804.65
  A 0.61 0.61 0.0 0 0 940.53 805.26
  L 940.53 830.22
  A 0.61 0.61 0.0 0 0 941.14 830.83
  L 968.82 830.83
  A 0.61 0.61 0.0 0 0 969.43 830.22
  L 969.43 805.26
  Z
  M 1225.05 805.25
  A 0.63 0.63 0.0 0 0 1224.42 804.62
  L 1201.48 804.62
  A 0.63 0.63 0.0 0 0 1200.85 805.25
  L 1200.85 986.45
  A 0.63 0.63 0.0 0 0 1201.48 987.08
  L 1224.42 987.08
  A 0.63 0.63 0.0 0 0 1225.05 986.45
  L 1225.05 805.25
  Z
  M 1281.18 805.12
  A 0.50 0.50 0.0 0 0 1280.68 804.62
  L 1252.94 804.62
  A 0.50 0.50 0.0 0 0 1252.44 805.12
  L 1252.44 830.42
  A 0.50 0.50 0.0 0 0 1252.94 830.92
  L 1280.68 830.92
  A 0.50 0.50 0.0 0 0 1281.18 830.42
  L 1281.18 805.12
  Z
  M 282.21 922.83
  Q 299.51 922.73 316.80 922.84
  C 348.43 923.06 383.00 914.24 387.77 876.70
  Q 389.46 863.36 388.00 853.26
  C 382.37 814.41 349.45 806.22 315.75 806.11
  Q 273.55 805.98 232.09 806.02
  Q 230.87 806.02 230.87 807.24
  L 230.87 987.18
  A 0.81 0.81 0.0 0 0 231.68 987.99
  L 280.76 988.06
  A 0.83 0.83 0.0 0 0 281.59 987.24
  L 281.68 923.36
  A 0.53 0.53 0.0 0 1 282.21 922.83
  Z
  M 702.51 841.53
  Q 699.34 841.30 699.52 844.74
  Q 699.75 849.15 699.45 860.99
  Q 699.44 861.40 699.03 861.40
  L 675.52 861.44
  Q 674.97 861.44 674.97 861.98
  L 674.98 891.31
  Q 674.98 891.88 675.55 891.88
  L 699.01 891.80
  Q 699.54 891.79 699.54 892.32
  C 699.57 912.42 699.89 932.61 699.32 952.69
  Q 699.06 961.72 701.11 969.50
  C 705.55 986.37 720.30 990.02 735.75 991.15
  Q 754.03 992.48 773.69 989.55
  A 1.80 1.80 0.0 0 0 775.22 987.77
  L 775.23 961.02
  Q 775.23 960.60 774.81 960.64
  Q 765.99 961.40 757.11 961.04
  C 752.21 960.84 749.54 958.90 748.51 954.21
  Q 747.63 950.24 747.63 948.25
  Q 747.59 920.20 747.67 892.24
  A 0.38 0.38 0.0 0 1 748.05 891.86
  L 774.49 891.85
  Q 775.33 891.85 775.33 891.01
  L 775.31 862.01
  Q 775.31 861.47 774.76 861.47
  L 748.87 861.49
  Q 747.74 861.49 747.74 860.37
  L 747.61 824.94
  A 0.56 0.55 79.5 0 0 746.86 824.42
  Q 725.04 832.71 703.15 840.92
  Q 702.96 840.99 702.86 841.29
  A 0.34 0.34 0.0 0 1 702.51 841.53
  Z
  M 1047.60 972.12
  L 1043.56 972.08
  Q 1034.20 971.38 1031.03 965.00
  Q 1029.47 961.85 1029.47 952.30
  Q 1029.47 915.03 1029.49 877.68
  Q 1029.49 877.14 1030.03 877.15
  L 1058.21 877.55
  A 0.51 0.51 0.0 0 0 1058.73 877.04
  L 1058.73 859.70
  Q 1058.73 859.17 1058.20 859.19
  L 1030.01 860.26
  Q 1029.49 860.28 1029.49 859.76
  L 1029.49 826.29
  A 0.55 0.54 81.1 0 0 1028.78 825.77
  L 1005.94 832.96
  Q 1005.49 833.10 1005.49 833.57
  L 1005.38 859.67
  A 0.53 0.53 0.0 0 1 1004.83 860.20
  L 984.29 859.33
  Q 983.63 859.30 983.63 859.96
  L 983.57 876.93
  Q 983.57 877.54 984.18 877.53
  L 1004.73 877.15
  Q 1005.32 877.14 1005.32 877.73
  Q 1005.46 917.44 1005.41 957.15
  Q 1005.39 968.91 1006.66 973.21
  C 1010.68 986.94 1022.63 990.17 1036.48 990.62
  Q 1046.87 990.96 1057.50 989.20
  A 0.71 0.71 0.0 0 0 1058.09 988.50
  L 1058.03 971.26
  A 0.50 0.50 0.0 0 0 1057.46 970.77
  L 1047.60 972.12
  Z
  M 1120.22 856.58
  C 1106.93 856.83 1092.66 861.51 1084.52 872.05
  Q 1077.58 881.03 1077.22 893.47
  Q 1077.20 894.00 1077.74 894.00
  L 1102.24 894.05
  Q 1102.72 894.05 1102.76 893.57
  Q 1103.74 880.68 1115.01 876.19
  C 1123.83 872.67 1138.70 872.81 1146.42 879.59
  C 1152.86 885.26 1153.34 900.17 1152.97 908.08
  A 0.55 0.55 0.0 0 1 1152.40 908.61
  C 1134.05 908.09 1114.42 907.76 1097.55 914.13
  Q 1069.62 924.68 1069.59 955.23
  C 1069.56 983.42 1100.56 994.17 1123.98 989.96
  Q 1143.92 986.37 1153.09 968.63
  A 0.28 0.28 0.0 0 1 1153.62 968.73
  L 1154.89 985.39
  A 1.98 1.97 -2.3 0 0 1156.87 987.21
  L 1177.56 987.02
  A 0.57 0.57 0.0 0 0 1178.13 986.42
  C 1176.50 957.28 1177.32 927.94 1177.08 898.77
  C 1176.85 869.80 1158.06 857.45 1131.33 856.58
  Q 1125.67 855.77 1120.22 856.58
  Z
  M 1361.07 856.47
  L 1352.16 856.45
  C 1328.94 857.09 1309.34 867.96 1308.09 893.61
  Q 1308.07 894.02 1308.48 894.02
  L 1333.03 894.05
  Q 1333.49 894.05 1333.53 893.60
  C 1335.07 875.00 1354.21 871.40 1369.24 875.49
  C 1377.85 877.84 1381.11 882.74 1382.73 891.56
  Q 1384.20 899.63 1383.64 907.79
  A 0.86 0.86 0.0 0 1 1382.77 908.60
  C 1361.92 908.27 1337.37 907.08 1318.90 918.85
  Q 1299.95 930.90 1300.54 956.24
  C 1300.92 972.79 1312.67 984.01 1327.48 988.33
  C 1348.40 994.43 1372.90 990.13 1383.53 969.27
  A 0.53 0.53 0.0 0 1 1384.53 969.46
  Q 1385.09 975.18 1385.39 981.12
  Q 1385.54 984.12 1386.38 986.48
  A 1.18 1.18 0.0 0 0 1387.49 987.26
  L 1408.23 987.07
  A 1.07 1.07 0.0 0 0 1409.28 985.84
  Q 1408.41 979.68 1408.38 973.75
  Q 1408.19 939.12 1408.11 904.50
  C 1408.09 896.02 1407.62 888.81 1405.25 881.75
  C 1401.10 869.41 1390.06 861.68 1377.74 858.66
  Q 1369.69 856.69 1361.07 856.47
  Z
  M 1492.16 856.49
  C 1478.02 857.66 1464.06 865.11 1457.25 877.95
  A 0.43 0.43 0.0 0 1 1456.44 877.75
  L 1456.44 860.65
  Q 1456.44 860.11 1455.90 860.11
  L 1433.33 860.07
  Q 1432.74 860.07 1432.74 860.67
  L 1432.73 986.65
  A 0.42 0.42 0.0 0 0 1433.15 987.07
  L 1456.03 987.03
  A 0.86 0.86 0.0 0 0 1456.89 986.17
  Q 1457.00 953.11 1456.93 920.00
  C 1456.89 904.39 1458.07 889.24 1471.66 880.44
  C 1482.18 873.64 1498.34 872.78 1508.54 880.08
  C 1518.14 886.95 1519.02 898.88 1519.03 910.00
  Q 1519.04 948.00 1519.00 986.31
  A 0.75 0.75 0.0 0 0 1519.74 987.06
  L 1542.52 987.08
  A 0.96 0.95 -0.0 0 0 1543.48 986.13
  Q 1543.49 942.60 1543.35 899.25
  C 1543.30 882.88 1536.50 868.92 1521.23 861.87
  Q 1510.92 857.11 1499.55 856.58
  L 1492.16 856.49
  Z
  M 1599.71 928.07
  L 1676.49 928.19
  Q 1677.01 928.19 1677.05 927.67
  Q 1677.75 917.69 1676.67 907.75
  C 1674.05 877.89 1655.96 858.01 1625.08 856.57
  L 1617.31 856.44
  L 1606.49 857.81
  Q 1606.02 857.87 1605.63 858.15
  Q 1604.87 858.70 1603.90 858.74
  Q 1602.53 858.80 1602.11 858.93
  C 1570.72 869.02 1561.60 899.46 1562.22 929.24
  C 1562.93 963.60 1580.30 989.89 1617.25 990.70
  C 1646.35 991.34 1670.78 978.95 1675.62 948.06
  A 0.65 0.65 0.0 0 0 1674.98 947.31
  L 1650.78 947.34
  Q 1650.25 947.34 1650.13 947.86
  Q 1648.61 954.65 1647.72 956.99
  C 1643.98 966.75 1636.60 971.39 1626.48 972.72
  C 1608.69 975.06 1596.06 968.23 1590.17 951.11
  Q 1586.53 940.55 1587.75 928.81
  Q 1587.81 928.26 1588.35 928.26
  L 1599.71 928.07
  Z
  M 492.59 987.33
  Q 497.73 986.21 503.24 983.47
  Q 521.01 974.62 529.92 958.12
  C 539.83 939.77 540.00 912.84 531.40 894.00
  C 516.54 861.45 477.90 854.41 446.28 859.22
  Q 431.24 861.50 419.18 868.67
  Q 399.30 880.50 392.96 903.39
  Q 388.48 919.52 390.83 936.13
  Q 394.86 964.61 417.30 979.31
  C 438.38 993.12 468.76 994.44 492.12 987.79
  Q 492.19 987.77 492.23 987.71
  Q 492.31 987.59 492.39 987.47
  Q 492.46 987.36 492.59 987.33
  Z
  M 655.76 920.93
  Q 652.76 918.77 650.49 917.75
  Q 641.81 913.84 630.89 911.28
  Q 619.19 908.53 607.48 905.81
  C 601.42 904.41 591.63 902.36 593.83 893.63
  Q 595.94 885.26 605.98 885.58
  Q 620.64 886.05 620.85 900.05
  Q 620.86 900.51 621.32 900.51
  L 665.76 900.49
  Q 666.32 900.49 666.28 899.93
  C 664.60 874.31 648.75 862.59 625.45 859.14
  C 601.25 855.56 557.84 857.23 549.27 887.39
  C 544.80 903.13 550.70 918.30 565.42 926.15
  C 577.12 932.39 588.57 934.74 603.61 938.55
  C 612.48 940.80 627.54 945.77 621.45 957.28
  Q 619.80 960.40 616.34 961.95
  C 604.42 967.28 591.92 960.67 591.90 947.12
  Q 591.90 946.69 591.47 946.69
  L 547.45 946.68
  Q 546.89 946.68 546.87 947.24
  C 545.82 975.05 564.01 987.62 588.74 990.55
  C 609.49 993.01 636.54 992.55 653.98 980.05
  C 667.53 970.35 670.68 952.70 666.83 937.18
  Q 664.33 927.11 655.76 920.93
  Z
  M 917.82 898.07
  Q 917.23 896.04 916.94 895.24
  Q 905.60 864.26 872.80 859.12
  Q 852.35 855.91 834.76 859.79
  C 807.64 865.77 788.49 886.38 786.56 914.51
  Q 785.41 931.21 788.99 947.56
  C 795.08 975.35 813.72 987.30 840.10 990.59
  Q 855.59 992.52 871.24 990.72
  Q 884.35 989.21 895.85 982.89
  C 909.83 975.21 918.86 963.27 921.41 947.76
  Q 921.62 946.45 920.29 946.45
  L 877.39 946.38
  A 0.93 0.93 0.0 0 0 876.47 947.18
  C 874.75 959.85 862.96 965.81 851.02 964.47
  C 835.10 962.69 830.81 948.60 831.92 934.83
  A 0.49 0.49 0.0 0 1 832.41 934.38
  L 921.49 934.51
  Q 922.03 934.51 922.05 933.97
  Q 922.93 915.55 917.82 898.07
  Z
  M 967.21 860.78
  A 0.66 0.66 0.0 0 0 966.55 860.12
  L 943.43 860.12
  A 0.66 0.66 0.0 0 0 942.77 860.78
  L 942.77 986.38
  A 0.66 0.66 0.0 0 0 943.43 987.04
  L 966.55 987.04
  A 0.66 0.66 0.0 0 0 967.21 986.38
  L 967.21 860.78
  Z
  M 1278.90 860.43
  A 0.27 0.27 0.0 0 0 1278.63 860.16
  L 1255.05 860.16
  A 0.27 0.27 0.0 0 0 1254.78 860.43
  L 1254.78 986.77
  A 0.27 0.27 0.0 0 0 1255.05 987.04
  L 1278.63 987.04
  A 0.27 0.27 0.0 0 0 1278.90 986.77
  L 1278.90 860.43
  Z"
/>
<rect fill="#0047bb" x="940.53" y="804.65" width="28.90" height="26.18" rx="0.61"/>
<rect fill="#0047bb" x="1200.85" y="804.62" width="24.20" height="182.46" rx="0.63"/>
<rect fill="#0047bb" x="1252.44" y="804.62" width="28.74" height="26.30" rx="0.50"/>
<path fill="#0047bb" d="
  M 281.68 923.36
  L 281.59 987.24
  A 0.83 0.83 0.0 0 1 280.76 988.06
  L 231.68 987.99
  A 0.81 0.81 0.0 0 1 230.87 987.18
  L 230.87 807.24
  Q 230.87 806.02 232.09 806.02
  Q 273.55 805.98 315.75 806.11
  C 349.45 806.22 382.37 814.41 388.00 853.26
  Q 389.46 863.36 387.77 876.70
  C 383.00 914.24 348.43 923.06 316.80 922.84
  Q 299.51 922.73 282.21 922.83
  A 0.53 0.53 0.0 0 0 281.68 923.36
  Z
  M 281.60 841.93
  L 281.68 887.05
  A 0.39 0.39 0.0 0 0 282.07 887.44
  L 310.17 887.39
  A 25.43 21.28 -0.1 0 0 335.56 866.06
  L 335.56 862.72
  A 25.43 21.28 -0.1 0 0 310.09 841.49
  L 281.99 841.54
  A 0.39 0.39 0.0 0 0 281.60 841.93
  Z"
/>
<path fill="#0047bb" d="
  M 702.86 841.29
  Q 702.96 840.99 703.15 840.92
  Q 725.04 832.71 746.86 824.42
  A 0.56 0.55 79.5 0 1 747.61 824.94
  L 747.74 860.37
  Q 747.74 861.49 748.87 861.49
  L 774.76 861.47
  Q 775.31 861.47 775.31 862.01
  L 775.33 891.01
  Q 775.33 891.85 774.49 891.85
  L 748.05 891.86
  A 0.38 0.38 0.0 0 0 747.67 892.24
  Q 747.59 920.20 747.63 948.25
  Q 747.63 950.24 748.51 954.21
  C 749.54 958.90 752.21 960.84 757.11 961.04
  Q 765.99 961.40 774.81 960.64
  Q 775.23 960.60 775.23 961.02
  L 775.22 987.77
  A 1.80 1.80 0.0 0 1 773.69 989.55
  Q 754.03 992.48 735.75 991.15
  C 720.30 990.02 705.55 986.37 701.11 969.50
  Q 699.06 961.72 699.32 952.69
  C 699.89 932.61 699.57 912.42 699.54 892.32
  Q 699.54 891.79 699.01 891.80
  L 675.55 891.88
  Q 674.98 891.88 674.98 891.31
  L 674.97 861.98
  Q 674.97 861.44 675.52 861.44
  L 699.03 861.40
  Q 699.44 861.40 699.45 860.99
  Q 699.75 849.15 699.52 844.74
  Q 699.34 841.30 702.51 841.53
  A 0.34 0.34 0.0 0 0 702.86 841.29
  Z"
/>
<path fill="#0047bb" d="
  M 1043.56 972.08
  Q 1045.35 972.93 1047.60 972.12
  L 1057.46 970.77
  A 0.50 0.50 0.0 0 1 1058.03 971.26
  L 1058.09 988.50
  A 0.71 0.71 0.0 0 1 1057.50 989.20
  Q 1046.87 990.96 1036.48 990.62
  C 1022.63 990.17 1010.68 986.94 1006.66 973.21
  Q 1005.39 968.91 1005.41 957.15
  Q 1005.46 917.44 1005.32 877.73
  Q 1005.32 877.14 1004.73 877.15
  L 984.18 877.53
  Q 983.57 877.54 983.57 876.93
  L 983.63 859.96
  Q 983.63 859.30 984.29 859.33
  L 1004.83 860.20
  A 0.53 0.53 0.0 0 0 1005.38 859.67
  L 1005.49 833.57
  Q 1005.49 833.10 1005.94 832.96
  L 1028.78 825.77
  A 0.55 0.54 81.1 0 1 1029.49 826.29
  L 1029.49 859.76
  Q 1029.49 860.28 1030.01 860.26
  L 1058.20 859.19
  Q 1058.73 859.17 1058.73 859.70
  L 1058.73 877.04
  A 0.51 0.51 0.0 0 1 1058.21 877.55
  L 1030.03 877.15
  Q 1029.49 877.14 1029.49 877.68
  Q 1029.47 915.03 1029.47 952.30
  Q 1029.47 961.85 1031.03 965.00
  Q 1034.20 971.38 1043.56 972.08
  Z"
/>
<path fill="#eedc00" d="
  M 281.60 841.93
  A 0.39 0.39 0.0 0 1 281.99 841.54
  L 310.09 841.49
  A 25.43 21.28 -0.1 0 1 335.56 862.72
  L 335.56 866.06
  A 25.43 21.28 -0.1 0 1 310.17 887.39
  L 282.07 887.44
  A 0.39 0.39 0.0 0 1 281.68 887.05
  L 281.60 841.93
  Z"
/>
<path fill="#0047bb" d="
  M 1352.16 856.45
  L 1361.07 856.47
  Q 1369.69 856.69 1377.74 858.66
  C 1390.06 861.68 1401.10 869.41 1405.25 881.75
  C 1407.62 888.81 1408.09 896.02 1408.11 904.50
  Q 1408.19 939.12 1408.38 973.75
  Q 1408.41 979.68 1409.28 985.84
  A 1.07 1.07 0.0 0 1 1408.23 987.07
  L 1387.49 987.26
  A 1.18 1.18 0.0 0 1 1386.38 986.48
  Q 1385.54 984.12 1385.39 981.12
  Q 1385.09 975.18 1384.53 969.46
  A 0.53 0.53 0.0 0 0 1383.53 969.27
  C 1372.90 990.13 1348.40 994.43 1327.48 988.33
  C 1312.67 984.01 1300.92 972.79 1300.54 956.24
  Q 1299.95 930.90 1318.90 918.85
  C 1337.37 907.08 1361.92 908.27 1382.77 908.60
  A 0.86 0.86 0.0 0 0 1383.64 907.79
  Q 1384.20 899.63 1382.73 891.56
  C 1381.11 882.74 1377.85 877.84 1369.24 875.49
  C 1354.21 871.40 1335.07 875.00 1333.53 893.60
  Q 1333.49 894.05 1333.03 894.05
  L 1308.48 894.02
  Q 1308.07 894.02 1308.09 893.61
  C 1309.34 867.96 1328.94 857.09 1352.16 856.45
  Z
  M 1326.04 950.05
  C 1325.55 962.28 1333.77 971.38 1345.93 972.77
  C 1355.78 973.90 1365.74 972.21 1372.81 965.20
  C 1382.02 956.08 1384.42 939.05 1383.72 926.08
  Q 1383.69 925.46 1383.07 925.44
  Q 1369.90 924.83 1356.91 925.76
  C 1347.44 926.43 1335.36 929.62 1329.73 937.89
  Q 1326.33 942.87 1326.04 950.05
  Z"
/>
<path fill="#0047bb" d="
  M 1617.31 856.44
  L 1625.08 856.57
  C 1655.96 858.01 1674.05 877.89 1676.67 907.75
  L 1676.81 926.96
  A 0.88 0.88 0.0 0 1 1675.94 927.84
  L 1599.71 928.07
  L 1588.35 928.26
  Q 1587.81 928.26 1587.75 928.81
  Q 1586.53 940.55 1590.17 951.11
  C 1596.06 968.23 1608.69 975.06 1626.48 972.72
  C 1636.60 971.39 1643.98 966.75 1647.72 956.99
  Q 1648.61 954.65 1650.13 947.86
  Q 1650.25 947.34 1650.78 947.34
  L 1674.98 947.31
  A 0.65 0.65 0.0 0 1 1675.62 948.06
  C 1670.78 978.95 1646.35 991.34 1617.25 990.70
  C 1580.30 989.89 1562.93 963.60 1562.22 929.24
  C 1561.60 899.46 1570.72 869.02 1602.11 858.93
  Q 1602.53 858.80 1603.90 858.74
  Q 1604.87 858.70 1605.63 858.15
  Q 1606.02 857.87 1606.49 857.81
  L 1617.31 856.44
  Z
  M 1588.49 911.48
  L 1651.47 911.48
  A 0.26 0.26 0.0 0 0 1651.73 911.22
  L 1651.73 906.89
  A 32.99 30.44 90.0 0 0 1621.29 873.90
  L 1618.67 873.90
  A 32.99 30.44 90.0 0 0 1588.23 906.89
  L 1588.23 911.22
  A 0.26 0.26 0.0 0 0 1588.49 911.48
  Z"
/>
<path fill="#0047bb" d="
  M 1120.22 856.58
  L 1131.33 856.58
  C 1158.06 857.45 1176.85 869.80 1177.08 898.77
  C 1177.32 927.94 1176.50 957.28 1178.13 986.42
  A 0.57 0.57 0.0 0 1 1177.56 987.02
  L 1156.87 987.21
  A 1.98 1.97 -2.3 0 1 1154.89 985.39
  L 1153.62 968.73
  A 0.28 0.28 0.0 0 0 1153.09 968.63
  Q 1143.92 986.37 1123.98 989.96
  C 1100.56 994.17 1069.56 983.42 1069.59 955.23
  Q 1069.62 924.68 1097.55 914.13
  C 1114.42 907.76 1134.05 908.09 1152.40 908.61
  A 0.55 0.55 0.0 0 0 1152.97 908.08
  C 1153.34 900.17 1152.86 885.26 1146.42 879.59
  C 1138.70 872.81 1123.83 872.67 1115.01 876.19
  Q 1103.74 880.68 1102.76 893.57
  Q 1102.72 894.05 1102.24 894.05
  L 1077.74 894.00
  Q 1077.20 894.00 1077.22 893.47
  Q 1077.58 881.03 1084.52 872.05
  C 1092.66 861.51 1106.93 856.83 1120.22 856.58
  Z
  M 1130.26 925.46
  C 1118.77 925.68 1105.31 928.60 1098.19 938.87
  C 1093.50 945.64 1094.34 956.83 1098.85 963.36
  Q 1104.84 972.07 1117.02 972.90
  Q 1141.87 974.58 1149.69 952.19
  Q 1153.78 940.46 1152.76 925.84
  Q 1152.73 925.36 1152.25 925.36
  Q 1141.22 925.25 1130.26 925.46
  Z"
/>
<path fill="#0047bb" d="
  M 1492.16 856.49
  L 1499.55 856.58
  Q 1510.92 857.11 1521.23 861.87
  C 1536.50 868.92 1543.30 882.88 1543.35 899.25
  Q 1543.49 942.60 1543.48 986.13
  A 0.96 0.95 0.0 0 1 1542.52 987.08
  L 1519.74 987.06
  A 0.75 0.75 0.0 0 1 1519.00 986.31
  Q 1519.04 948.00 1519.03 910.00
  C 1519.02 898.88 1518.14 886.95 1508.54 880.08
  C 1498.34 872.78 1482.18 873.64 1471.66 880.44
  C 1458.07 889.24 1456.89 904.39 1456.93 920.00
  Q 1457.00 953.11 1456.89 986.17
  A 0.86 0.86 0.0 0 1 1456.03 987.03
  L 1433.15 987.07
  A 0.42 0.42 0.0 0 1 1432.73 986.65
  L 1432.74 860.67
  Q 1432.74 860.07 1433.33 860.07
  L 1455.90 860.11
  Q 1456.44 860.11 1456.44 860.65
  L 1456.44 877.75
  A 0.43 0.43 0.0 0 0 1457.25 877.95
  C 1464.06 865.11 1478.02 857.66 1492.16 856.49
  Z"
/>
<path fill="#0047bb" d="
  M 492.39 987.47
  Q 492.31 987.59 492.23 987.71
  Q 492.19 987.77 492.12 987.79
  C 468.76 994.44 438.38 993.12 417.30 979.31
  Q 394.86 964.61 390.83 936.13
  Q 388.48 919.52 392.96 903.39
  Q 399.30 880.50 419.18 868.67
  Q 431.24 861.50 446.28 859.22
  C 477.90 854.41 516.54 861.45 531.40 894.00
  C 540.00 912.84 539.83 939.77 529.92 958.12
  Q 521.01 974.62 503.24 983.47
  Q 497.73 986.21 492.59 987.33
  Q 492.46 987.36 492.39 987.47
  Z
  M 452.23 888.77
  C 446.64 892.65 443.07 899.42 441.62 905.60
  C 438.17 920.33 436.93 952.39 453.47 961.25
  C 461.08 965.33 471.27 964.55 477.86 958.66
  C 485.01 952.27 487.28 941.11 487.84 931.49
  C 488.90 913.53 486.68 882.90 461.04 885.67
  Q 455.90 886.23 452.23 888.77
  Z"
/>
<path fill="#0047bb" d="
  M 655.76 920.93
  Q 664.33 927.11 666.83 937.18
  C 670.68 952.70 667.53 970.35 653.98 980.05
  C 636.54 992.55 609.49 993.01 588.74 990.55
  C 564.01 987.62 545.82 975.05 546.87 947.24
  Q 546.89 946.68 547.45 946.68
  L 591.47 946.69
  Q 591.90 946.69 591.90 947.12
  C 591.92 960.67 604.42 967.28 616.34 961.95
  Q 619.80 960.40 621.45 957.28
  C 627.54 945.77 612.48 940.80 603.61 938.55
  C 588.57 934.74 577.12 932.39 565.42 926.15
  C 550.70 918.30 544.80 903.13 549.27 887.39
  C 557.84 857.23 601.25 855.56 625.45 859.14
  C 648.75 862.59 664.60 874.31 666.28 899.93
  Q 666.32 900.49 665.76 900.49
  L 621.32 900.51
  Q 620.86 900.51 620.85 900.05
  Q 620.64 886.05 605.98 885.58
  Q 595.94 885.26 593.83 893.63
  C 591.63 902.36 601.42 904.41 607.48 905.81
  Q 619.19 908.53 630.89 911.28
  Q 641.81 913.84 650.49 917.75
  Q 652.76 918.77 655.76 920.93
  Z"
/>
<path fill="#0047bb" d="
  M 917.82 898.07
  Q 922.93 915.55 922.05 933.97
  Q 922.03 934.51 921.49 934.51
  L 832.41 934.38
  A 0.49 0.49 0.0 0 0 831.92 934.83
  C 830.81 948.60 835.10 962.69 851.02 964.47
  C 862.96 965.81 874.75 959.85 876.47 947.18
  A 0.93 0.93 0.0 0 1 877.39 946.38
  L 920.29 946.45
  Q 921.62 946.45 921.41 947.76
  C 918.86 963.27 909.83 975.21 895.85 982.89
  Q 884.35 989.21 871.24 990.72
  Q 855.59 992.52 840.10 990.59
  C 813.72 987.30 795.08 975.35 788.99 947.56
  Q 785.41 931.21 786.56 914.51
  C 788.49 886.38 807.64 865.77 834.76 859.79
  Q 852.35 855.91 872.80 859.12
  Q 905.60 864.26 916.94 895.24
  Q 917.23 896.04 917.82 898.07
  Z
  M 872.46 908.30
  L 871.74 908.40
  Q 871.10 908.48 871.73 908.62
  Q 874.31 909.19 876.72 908.17
  C 876.53 894.48 868.75 880.51 853.50 881.83
  C 837.80 883.18 834.45 894.23 832.66 907.58
  A 0.63 0.62 4.0 0 0 833.28 908.29
  L 872.46 908.30
  Z"
/>
<rect fill="#0047bb" x="942.77" y="860.12" width="24.44" height="126.92" rx="0.66"/>
<rect fill="#0047bb" x="1254.78" y="860.16" width="24.12" height="126.88" rx="0.27"/>
<path fill="#eedc00" d="
  M 1588.49 911.48
  A 0.26 0.26 0.0 0 1 1588.23 911.22
  L 1588.23 906.89
  A 32.99 30.44 -90.0 0 1 1618.67 873.90
  L 1621.29 873.90
  A 32.99 30.44 -90.0 0 1 1651.73 906.89
  L 1651.73 911.22
  A 0.26 0.26 0.0 0 1 1651.47 911.48
  L 1588.49 911.48
  Z"
/>
<path fill="#eedc00" d="
  M 876.72 908.17
  L 872.46 908.30
  L 833.28 908.29
  A 0.63 0.62 4.0 0 1 832.66 907.58
  C 834.45 894.23 837.80 883.18 853.50 881.83
  C 868.75 880.51 876.53 894.48 876.72 908.17
  Z"
/>
<path fill="#eedc00" d="
  M 461.04 885.67
  C 486.68 882.90 488.90 913.53 487.84 931.49
  C 487.28 941.11 485.01 952.27 477.86 958.66
  C 471.27 964.55 461.08 965.33 453.47 961.25
  C 436.93 952.39 438.17 920.33 441.62 905.60
  C 443.07 899.42 446.64 892.65 452.23 888.77
  Q 455.90 886.23 461.04 885.67
  Z"
/>
<path fill="#eedc00" d="
  M 1098.19 938.87
  C 1105.31 928.60 1118.77 925.68 1130.26 925.46
  Q 1141.22 925.25 1152.25 925.36
  Q 1152.73 925.36 1152.76 925.84
  Q 1153.78 940.46 1149.69 952.19
  Q 1141.87 974.58 1117.02 972.90
  Q 1104.84 972.07 1098.85 963.36
  C 1094.34 956.83 1093.50 945.64 1098.19 938.87
  Z"
/>
<path fill="#eedc00" d="
  M 1329.73 937.89
  C 1335.36 929.62 1347.44 926.43 1356.91 925.76
  Q 1369.90 924.83 1383.07 925.44
  Q 1383.69 925.46 1383.72 926.08
  C 1384.42 939.05 1382.02 956.08 1372.81 965.20
  C 1365.74 972.21 1355.78 973.90 1345.93 972.77
  C 1333.77 971.38 1325.55 962.28 1326.04 950.05
  Q 1326.33 942.87 1329.73 937.89
  Z"
/>
</svg>
